<svg version="1.1" id="Camada_1" xmlns="http://www.w3.org/2000/svg" x="0" y="0" viewBox="0 0 1500 354.6" style="enable-background:new 0 0 1500 354.6" xml:space="preserve"><style>.st12,.st13,.st16,.st19{opacity:.888;fill-rule:evenodd;clip-rule:evenodd;fill:#00265b;enable-background:new}.st13,.st16,.st19{opacity:.969}.st16,.st19{opacity:.964}.st19{opacity:.966}</style><path d="M176.6.1c11.4-.7 18 4.5 19.6 15.8 3.1 22.4 6.9 44.6 11.3 66.7 41.4-6.6 83.1-8.4 125-5.4 9.2.1 16 4.1 20.4 12.1 2.6 8.7.3 15.8-7.1 21.3-39.7 23.9-78.7 48.7-117.1 74.6 5.5 23.8 11.9 47.4 19.2 70.8 7.1 20.9 14.3 41.8 21.7 62.5 3 8.9 2.4 17.5-1.7 25.8-9.5 11.3-20.7 13.4-33.8 6.3-4.7-3.3-9.1-6.9-13.3-10.8-30.4-28.5-61.1-56.7-92.1-84.6C96.6 279.7 64.2 304 31.6 328c-4.6 2.5-9.5 4.3-14.6 5.4-8.7-1-14.3-5.8-16.7-14.2-.8-6.8-.3-13.5 1.7-20 14.1-37.6 30.9-74 50.4-109.2-13.3-11.5-26.8-22.9-40.4-34.2-6.8-11.2-3.9-18.9 8.8-22.9 26.4-10 53-19.2 80-27.5 20.2-32.2 41.2-64 62.9-95.3 3-5.2 7.4-8.5 12.9-10zM120 99.2c9.3-15.6 19.2-30.9 29.6-45.8 3-4.4 6.7-8.3 10.8-11.7 2.2 1.3 3.3 3.2 3.3 5.8l6.3 40.8c-16.8 3.5-33.4 7.1-50 10.9zm146.6 0c7.5-.3 15 .1 22.5 1.3.9.6 1.5 1.4 1.7 2.5-.3 1.7-1 3.2-2.1 4.6-22.6 15.6-45.3 30.9-68.3 45.8-3.7-16.9-7.2-33.8-10.4-50.8 18.9-1.7 37.8-2.8 56.6-3.4zm-96.6 7.5h4.2c3.8 22.8 8.5 45.5 14.2 67.9-23.5 15.5-46.8 31.2-70 47.1-14.6-12.2-29.3-24.3-44.2-36.3-1.4-.9-1.8-2.2-1.3-3.8 11.2-21.5 23-42.6 35.4-63.3 20.5-4.3 41.1-8.2 61.7-11.6zm-82.5 15.9c1-.2 1.8.1 2.5.8-9.9 16.9-19.7 33.9-29.6 50.8-12.2-9.2-24-19-35.4-29.2.5-1 1-2 1.7-2.9 19.9-7.6 40.2-14.1 60.8-19.5zm-24.2 76.6c13.7 10.7 27 22 40 33.8-21.4 15.6-43.1 30.9-65 45.8-2.3 1.4-4.8 2-7.5 1.7-2.1-4-1.9-8 .4-12.1 10.7-23.1 21.4-46.1 32.1-69.2zm131.7 8.4c9.4 33.3 19.4 66.5 30 99.6-1.5 4.3-4 4.9-7.5 1.7-24.4-21.7-48.9-43.3-73.3-65 17-12 34-24.1 50.8-36.3z" style="opacity:.971;fill-rule:evenodd;clip-rule:evenodd;fill:#fe9e00;enable-background:new"/><path d="M693.3 83.4h9.2c.1 20.8 0 41.7-.4 62.5-9.7 4.6-19.2 4.4-28.8-.4-10-9.8-11.5-20.8-4.6-32.9 6.4-7.7 14.6-10.7 24.6-9.2v-20zm-6.7 27.5c2.2.3 4.4.6 6.7.8v29.2c-9.6 2.5-16.1-.8-19.6-10-1.4-10.6 2.9-17.3 12.9-20z" style="opacity:.902;fill-rule:evenodd;clip-rule:evenodd;fill:#00265b;enable-background:new"/><path d="M779.1 83.4h9.2c.1 20.8 0 41.7-.4 62.5-9.7 4.6-19.2 4.4-28.8-.4-8-6.7-10.6-15.2-7.9-25.4 4.8-12.9 14.1-18.5 27.9-16.7v-20zm-6.6 27.5c2.2.3 4.4.6 6.7.8v29.2c-10 2.6-16.6-1.1-19.6-10.8-1.1-10.2 3.2-16.5 12.9-19.2z" style="opacity:.913;fill-rule:evenodd;clip-rule:evenodd;fill:#00265b;enable-background:new"/><path d="M485.8 85.9c7.1-.7 9.6 2.4 7.5 9.2-3.6 3.4-6.8 3.1-9.6-.8-.9-3.3-.2-6.1 2.1-8.4z" style="opacity:.88;fill-rule:evenodd;clip-rule:evenodd;fill:#00265b;enable-background:new"/><path d="M650 85.9c6.5-.8 9.2 1.9 7.9 8.3-5.3 5-9 4-11.3-2.9.7-2.1 1.8-3.9 3.4-5.4z" style="opacity:.866;fill-rule:evenodd;clip-rule:evenodd;fill:#00265b;enable-background:new"/><path d="M383.3 87.6h9.2c-.1 14.2 0 28.3.4 42.5 2.2 8 7.5 11.9 15.8 11.7 6.4-.6 10.6-3.9 12.5-10 .4-14.7.6-29.4.4-44.2h8.3c.4 16.4 0 32.8-1.3 49.2-4.7 8.9-12.2 13.1-22.5 12.5-13.1.2-20.6-6.2-22.5-19.2-.3-14.2-.4-28.4-.3-42.5z" style="opacity:.914;fill-rule:evenodd;clip-rule:evenodd;fill:#00265b;enable-background:new"/><path d="M458.3 103.4c8.9-1.3 14.6 2.3 17.1 10.8.4 11.4.6 22.8.4 34.2h-9.2c.1-10.6 0-21.1-.4-31.7-.9-3.5-3.1-5.2-6.7-5-4.2.3-7.9 2-10.8 5-.4 10.6-.6 21.1-.4 31.7h-9.2v-44.2c2.5-.1 5 0 7.5.4.6 1.2 1 2.4 1.3 3.8 3.4-2 6.8-3.7 10.4-5z" style="opacity:.903;fill-rule:evenodd;clip-rule:evenodd;fill:#00265b;enable-background:new"/><path d="M556.6 103.4c11.4-.6 18.2 4.7 20.4 15.8.4 3 .6 6.1.4 9.2h-27.5c.7 8.2 5.2 12.4 13.3 12.5 3.6.2 6.9-.6 10-2.5 1.3 1.6 2.4 3.4 3.3 5.4-9.7 7.2-19.4 7.2-29.2 0-7-8.9-8.6-18.8-4.6-29.6 3.5-5.3 8-8.9 13.9-10.8zm0 7.5c7.1.1 11 3.7 11.7 10.8H550c.1-4.8 2.4-8.5 6.6-10.8z" style="opacity:.905;fill-rule:evenodd;clip-rule:evenodd;fill:#00265b;enable-background:new"/><path d="M601.6 103.4c2.2-.1 4.5 0 6.7.4.8.4 1.4 1.1 1.7 2.1-.9 2.6-2 5.1-3.3 7.5-5-1.7-9.4-.6-12.9 3.3-.4 10.6-.6 21.1-.4 31.7h-8.3v-44.2h7.5c0 1.5.4 2.9 1.3 4.2 2.2-2.2 4.8-3.9 7.7-5z" style="opacity:.931;fill-rule:evenodd;clip-rule:evenodd;fill:#00265b;enable-background:new"/><path d="M623.3 103.4c5.4-.4 10.7.3 15.8 2.1.8 2.5 1.1 5.2.8 7.9-3.7-1-7.4-1.9-11.3-2.5-8.1 1.1-9.4 4.2-3.8 9.6 5.6 1.8 10.5 4.7 14.6 8.8 3.9 11 .1 17.5-11.3 19.6-6.8 1.2-12.9-.2-18.3-4.2.8-2.3 1.9-4.4 3.3-6.3 5.2 3.4 10.8 4.1 16.7 2.1 3.1-2.7 3.1-5.5 0-8.3-4.9-2.2-9.7-4.7-14.2-7.5-5.6-10.3-3.1-17.4 7.7-21.3z" style="opacity:.893;fill-rule:evenodd;clip-rule:evenodd;fill:#00265b;enable-background:new"/><path d="M727.5 103.4c7.1-.6 12.2 2.2 15.4 8.3.9 11.9 1.6 23.9 2.1 35.8-2.5 1-5 1.1-7.5.4-.6-1-1.3-2-2.1-2.9-6.4 4.6-13.2 5.3-20.4 2.1-7.4-7.2-7.7-14.7-.8-22.5 6.6-3 13.5-4.3 20.8-3.8-.7-8.3-5.1-11.2-13.3-8.8-2.2.5-4.1 1.5-5.8 2.9-1.6-1.8-3-3.7-4.2-5.8 4.7-3.5 10-5.4 15.8-5.7zm-5 25H735c.1 3.1 0 6.1-.4 9.2-4.6 3.9-9.4 4.6-14.6 2.1-2.8-4.7-2-8.5 2.5-11.3z" style="opacity:.892;fill-rule:evenodd;clip-rule:evenodd;fill:#00265b;enable-background:new"/><path d="M810.8 103.4c11.2-.9 18 4.1 20.4 15 .4 3.3.6 6.7.4 10h-27.5c.7 8.2 5.1 12.3 13.3 12.5 3.6.2 6.9-.6 10-2.5 1.2 1.7 2.3 3.5 3.3 5.4-9.7 7.1-19.4 7.1-29.2 0-5.1-4.9-7.3-10.8-6.7-17.9 0-11.5 5.2-19 16-22.5zm0 7.5c7.1.1 11 3.7 11.7 10.8h-18.3c.1-4.9 2.4-8.5 6.6-10.8z" style="opacity:.907;fill-rule:evenodd;clip-rule:evenodd;fill:#00265b;enable-background:new"/><path class="st12" d="M484.1 104.2h9.2v44.2h-9.2v-44.2zM498.3 104.2c3.3-.2 6.5 0 9.6.8 3.6 10.3 7.2 20.6 10.8 30.8 4.4-10.4 8.5-21 12.1-31.7 3.1-.3 6.2 0 9.2.8-5.7 14.2-11.5 28.4-17.5 42.5-2.5 1.1-5 1.1-7.5 0-5.8-14.2-11.3-28.7-16.7-43.2zM648.3 104.2h9.2v44.2h-9.2v-44.2z"/><path class="st13" d="M1105 170.1h25c.1 40.8 0 81.7-.4 122.5-18.9 8.6-38.2 9.5-57.9 2.9-16.5-8.1-24.9-21.4-25-40 2.1-29.4 17.9-44.6 47.5-45.4 3.6.4 7.2.6 10.8.8v-40.8zm-13.3 60c4.5.1 8.9.3 13.3.8v47.5c-15.2 3.4-25.9-1.8-32.1-15.8-3.6-16.8 2.7-27.6 18.8-32.5z"/><path d="M1460 170.1h25c-.1 33.3 0 66.7.4 100 0 2.4.7 4.4 2.1 6.3 3.3.7 6.5.5 9.6-.4 1.2 5.5 2.2 11.1 2.9 16.7-.1 1.5-.7 2.8-1.7 3.8-7.5 3-15.3 4.1-23.3 3.3-8-2.2-12.9-7.3-14.6-15.4-.4-38.2-.5-76.3-.4-114.3z" style="opacity:.967;fill-rule:evenodd;clip-rule:evenodd;fill:#00265b;enable-background:new"/><path d="M817.5 172.6c16.2-.4 21.9 7.1 17.1 22.5-7.8 8.5-15.9 8.8-24.2.8-5.3-10.2-2.9-18 7.1-23.3z" style="opacity:.948;fill-rule:evenodd;clip-rule:evenodd;fill:#00265b;enable-background:new"/><path class="st16" d="M436.6 177.6c12.4-.6 24.4 1.5 35.8 6.3 1.1 7.6 1.1 15.2 0 22.9-13.9-8-28.6-10-44.2-6.3-16.4 6.9-24.8 19.2-25 37.1.3 19.3 9.4 32.2 27.5 38.8 13.8 2.7 26.9.6 39.2-6.3 2.9 5.5 5.4 11.1 7.5 17.1-13 8.9-27.4 13.2-43.3 12.9-30.1-1.5-49.2-16.8-57.1-45.8-4.6-25.8 3.1-47 22.9-63.8 11.2-7.6 23.4-11.9 36.7-12.9zM1311.7 177.6c12.8-.9 24.9 1.6 36.3 7.5.6 7.3.1 14.5-1.3 21.7-10.1-5.9-20.9-8.6-32.5-7.9-10.9 3.6-12.9 10-5.8 19.2 8.6 5.4 17.5 10.4 26.7 15 20.7 13.3 25 30.6 12.9 52.1-10.1 10.3-22.5 15.3-37.1 15-9.2-.4-18.1-2.2-26.7-5.4-4.1-1.6-7.7-3.8-10.8-6.7 2.6-6.5 5.9-12.4 10-17.9 11.2 8 23.4 10.3 36.7 7.1 7.8-3.7 9.6-9.4 5.4-17.1-1.8-2.1-3.9-3.9-6.3-5.4-9.7-4.9-19.2-10.1-28.3-15.8-10.9-8.7-15.2-19.9-12.9-33.8 2.1-9.8 7.5-17.2 16.3-22.1 5.5-2.8 11.4-4.6 17.4-5.5z"/><path d="M533.3 210.1c3.4.4 6.7 1.1 10 2.1 1.9.5 3.3 1.6 4.2 3.3-2.7 6.9-5.9 13.4-9.6 19.6-9-4.1-17.4-3-25 3.3-.4 20-.6 40-.4 60h-25v-85.8h21.7c.3 2.7 1.2 5.2 2.5 7.5 6.2-5.6 13.4-9 21.6-10z" style="opacity:.957;fill-rule:evenodd;clip-rule:evenodd;fill:#00265b;enable-background:new"/><path d="M753.3 210.1c21.6-.2 35.1 10.1 40.4 30.8 1.1 7.2 1.5 14.4 1.3 21.7-18.3-.1-36.7 0-55 .4 4.1 13 13 18.5 26.7 16.7 6.3-.8 12.3-2.6 17.9-5.4 2.7 4 4.7 8.5 5.8 13.3.7 1.2.5 2.3-.4 3.3-14.8 8.9-30.7 11.2-47.5 7.1-21-9-30-25-27.1-47.9 2.7-23.1 15.3-36.4 37.9-40zm-2.5 19.1c11.2-.5 17.3 4.8 18.3 15.8h-30c.8-7.6 4.7-12.9 11.7-15.8z" style="opacity:.963;fill-rule:evenodd;clip-rule:evenodd;fill:#00265b;enable-background:new"/><path class="st19" d="M898.3 210.1c3.4.5 6.7 1.2 10 2.1 1.9.5 3.3 1.6 4.2 3.3-2.7 6.8-5.9 13.4-9.6 19.6-9.1-4.2-17.4-3-25 3.3-.4 20-.6 40-.4 60h-25v-85.8h21.7c0 2.8.8 5.3 2.5 7.5 6.2-5.6 13.4-9 21.6-10z"/><path class="st16" d="M951.6 210.1c28.8.9 44.1 15.8 45.8 44.6-1.6 28.1-16.5 43.2-44.6 45.4-27.8-1.9-42.3-16.8-43.8-44.6 1.6-27.2 15.8-42.3 42.6-45.4zm-2.5 20c12.1-.3 19.5 5.6 22.1 17.5 2.4 11.3-.3 21.2-7.9 29.6-9.2 5-17.2 3.5-23.8-4.6-6.1-11.9-6.1-23.9 0-35.8 2.7-3.2 5.9-5.5 9.6-6.7z"/><path class="st19" d="M1185 210.1c28 1.7 42.7 16.6 44.2 44.6-1.1 28.6-16 43.8-44.6 45.4-28-2-42.5-17-43.8-45 2-27.8 16.7-42.8 44.2-45zm-3.3 20c11.6-.1 18.6 5.4 21.3 16.7 2.7 11.6.1 21.7-7.9 30.4-15.5 5.8-24.8.4-27.9-16.3-1.6-10.2.7-19.2 7.1-27.1 2.2-1.7 4.7-3 7.4-3.7z"/><path d="M550.8 212.6h25c-.1 18.9 0 37.8.4 56.7 4.4 10.2 11.7 13.1 22.1 8.8 1.8-.8 3.5-1.7 5-2.9.8-20.8 1.1-41.7.8-62.5h25c-.1 25.6 0 51.1.4 76.7.4 2.8.8 5.6 1.3 8.3-7 .1-13.9.2-20.8.4-1.6-2.5-2.8-5.1-3.8-7.9-11.6 9.6-24.5 12-38.8 7.1-9.6-4.9-15-12.9-16.3-23.8-.3-20.4-.4-40.6-.3-60.9z" style="opacity:.972;fill-rule:evenodd;clip-rule:evenodd;fill:#00265b;enable-background:new"/><path d="M641.6 212.6c23.6-.1 47.2 0 70.8.4-12 21.8-24.2 43.5-36.7 65 12.2.4 24.4.6 36.7.4v20c-24.7.3-49.5 0-74.2-.8 12.2-22 24.7-43.8 37.5-65.4-9.7-.3-19.4-.6-29.2-.8-2-6.2-3.6-12.4-4.9-18.8z" style="opacity:.954;fill-rule:evenodd;clip-rule:evenodd;fill:#00265b;enable-background:new"/><path d="M809.1 212.6h25v85.8h-25v-85.8z" style="opacity:.974;fill-rule:evenodd;clip-rule:evenodd;fill:#00265b;enable-background:new"/><path class="st13" d="M1365.8 212.6h25c.3 17.9 0 35.9-.8 53.8 2.7 11.2 9.6 15.4 20.8 12.5 3.1-.8 5.7-2.4 7.9-4.6.4-20.6.6-41.1.4-61.7h25c-.2 28.4 0 56.7.8 85-7 .3-13.9.3-20.8 0-.7-2.5-1.8-4.7-3.3-6.7-14.2 10.5-28.9 11.5-44.2 2.9-5.7-5-9.2-11.2-10.4-18.8-.4-20.8-.5-41.6-.4-62.4z"/></svg>